<svg xmlns="http://www.w3.org/2000/svg" id="Layer_1" data-name="Layer 1" viewBox="0 0 792 288" style="fill:white;"><defs/><path class="cls-1" d="M93.42,76.9c7.27-1.37,23.42-6.17,21.47-33.41,0,0-29.57,3.26-25.88,30.12,0,0,.28,2.16,1.32,3A3.93,3.93,0,0,0,93.42,76.9Z"/><path class="cls-1" d="M84.62,72.86C84.2,61.52,80.6,36,38.9,32.73c0,0-1.78,45.53,39.73,46.05,0,0,3.34.07,4.85-1.31C84.4,76.62,84.7,74.94,84.62,72.86Z"/><path class="cls-1" d="M65.91,233.13s-.07,1.53,2.3.93,4.55-1.17,6.86-1.63c12.18-2.4,21.82-1,33.83,1.14,24.42,4.38,51.53,8.29,73.23-6.75,12.08-8.36,20.33-21.9,21.12-36.69a41.67,41.67,0,0,0-16.15-35.24,40.14,40.14,0,0,0-21.76-8.13,39.64,39.64,0,0,0,19.91-34.38,40.07,40.07,0,0,0-15.17-31c-9.85-7.8-22.38-10.32-34.69-9.53-11,.71-21.72,4.19-32.43,7.38C92.61,82.27,84.3,84.44,73.8,83.32c-2-.21-4-.55-5.91-.88s-2,1.07-2,1.07Zm48.44-18.94c-4.09-4.2-5.78-10.53-5.78-17.88V159.63c0-2.85.92-3.3,5.35-3.67,0,0,17.48-1.76,27.53,5.93,10.7,8.18,14.54,23.43,11.64,36.47-2.35,10.56-10.06,20-21.32,21.34C125.69,220.41,118.77,218.74,114.35,214.19Zm13.08-122c9.16,1.07,15.43,8.77,17.34,17.36,2.36,10.6-.76,23-9.46,29.65-8.17,6.26-22.39,4.82-22.39,4.82-3.6-.3-4.36-.67-4.35-3V111.19c0-6,1.38-11.12,4.7-14.54C116.86,93,122.49,91.6,127.43,92.17Z"/><path class="cls-1" d="M263.93,230c0,1.87-1.46,2.91-4.16,2.7-4.15-.41-13.87-.83-26.33-.83s-20.37.42-24.73.83c-2.71.21-4.16-.83-4.16-2.7s1.45-2.7,3.95-3.53c4.36-1.25,5-5.61,5-13.3v-107c0-7.69-.63-12.06-5-13.51-2.5-.62-3.95-1.66-3.95-3.53,0-2.08,1.25-3.12,3.74-3.74,7.27-1.25,26.55-5,42.13-12.68,2.7-1.46,4.57-.21,4.57,2.7V213.2c0,7.69.63,12.05,5.2,13.3C262.68,227.33,263.93,228.16,263.93,230Z"/><path class="cls-1" d="M388.33,173.51c0,34.29-23.69,61.93-61.51,61.93-38,0-61.51-27.64-61.51-61.93.2-34.09,23.48-61.93,61.51-61.93C364.64,111.58,388.33,139.42,388.33,173.51ZM309,177.11c4.69,24.84,14.41,45.54,27.91,43,13-3.06,12.6-25.74,8.1-50.22-4.86-24.66-14.58-45.54-27.9-43C304,130,304.34,152.63,309,177.11Z"/><path class="cls-1" d="M517.56,173.51c0,34.29-23.7,61.93-61.52,61.93-38,0-61.51-27.64-61.51-61.93.21-34.09,23.48-61.93,61.51-61.93C493.86,111.58,517.56,139.42,517.56,173.51Zm-79.32,3.6c4.68,24.84,14.4,45.54,27.9,43,13-3.06,12.6-25.74,8.1-50.22-4.86-24.66-14.58-45.54-27.9-43C433.2,130,433.56,152.63,438.24,177.11Z"/><path class="cls-1" d="M527.81,213.2c0,7.69-.62,12.05-5.19,13.3-2.29.83-3.74,1.66-3.74,3.53s1.45,2.91,4.16,2.7c4.36-.41,12.26-.83,24.72-.83s22.19.42,26.34.83c2.7.21,4.16-.83,4.16-2.7s-1.25-2.7-3.74-3.53c-4.57-1.25-5.2-5.61-5.2-13.3V163.42c0-14.54,5.41-29.3,20.16-29.3,14.55,0,18.08,14.13,18.08,30.34V213.2c0,7.69-.42,12.05-5,13.3-2.49.83-4,1.66-4,3.53s1.67,2.91,4.37,2.7c4.15-.41,12-.83,24.52-.83s22.18.42,26.34.83c2.7.21,4.36-.83,4.36-2.7s-1.45-2.7-4-3.53c-4.57-1.25-5-5.61-5-13.3V163.42c0-14.54,5.4-29.3,20-29.3s18.28,14.13,18.28,30.34V213.2c0,7.69-.62,12.05-5.19,13.3-2.5.83-3.74,1.66-3.74,3.53s1.45,2.91,4.15,2.7c4.16-.41,13.87-.83,26.34-.83s20.37.42,24.73.83c2.7.21,4.16-.83,4.16-2.7s-1.46-2.7-4-3.53c-4.37-1.25-5-5.61-5-13.3V160.83c0-32.42-14.49-49.25-44-49.25-22.65,0-33.87,12.26-39.49,23.69-5.81-15.59-19.89-23.69-40.46-23.69-19.42,0-30,9.84-35.69,20.52,0-2.17.07-5.33-.06-7.57a11,11,0,0,0-1.71-5.88c-3.35-4.53-12.84-3.61-21.19-3.68L523,115c-2.71.06-3.24,1.55-3.24,2.79,0,1.87,1.76,2.6,3,3.45,4.44,2.68,5,5.61,5,13.3Z"/></svg>
