<svg width="257" height="57" viewBox="0 0 257 57" fill="none" xmlns="http://www.w3.org/2000/svg">
<g clip-path="url(#clip0_942_3100)">
<path d="M125.63 48.4416C125.63 47.6713 126.231 47.5566 126.589 47.5566C126.876 47.5566 127.264 47.6378 127.774 47.8033L128.051 47.8942V46.6085L127.897 46.5659C127.382 46.4217 126.984 46.3324 126.589 46.3324C125.317 46.3324 124.394 47.2198 124.394 48.4416C124.394 49.7429 125.255 50.8426 126.015 51.8137C126.618 52.5848 127.188 53.3133 127.188 53.9754C127.188 54.8022 126.568 55.2488 125.985 55.2488C125.362 55.2488 124.83 55.0055 124.67 54.8875L124.332 54.6375V56.1289L124.452 56.1863C124.729 56.3174 125.23 56.4731 126.051 56.4731C127.005 56.4731 128.425 55.8077 128.425 53.9754C128.425 52.8773 127.687 51.9522 126.974 51.0573C126.283 50.1904 125.63 49.3717 125.63 48.4416ZM103.093 54.1123C103.093 54.6506 102.651 55.089 102.107 55.089C101.563 55.089 101.121 54.6506 101.121 54.1123V46.4922H99.8851V54.1123C99.8851 55.3259 100.882 56.3133 102.107 56.3133C103.332 56.3133 104.329 55.3259 104.329 54.1123V46.4922H103.093L103.093 54.1123ZM88.4303 46.3315C85.5602 46.3315 83.312 48.5588 83.312 51.4023C83.312 54.2458 85.5602 56.4731 88.4303 56.4731C91.3004 56.4731 93.5485 54.2458 93.5485 51.4023C93.5485 48.5588 91.3004 46.3315 88.4303 46.3315ZM88.4303 55.2488C86.2893 55.2488 84.5478 53.5231 84.5478 51.4023C84.5478 49.2816 86.2893 47.5558 88.4303 47.5558C90.5713 47.5558 92.3128 49.2816 92.3128 51.4023C92.3128 53.5231 90.5713 55.2488 88.4303 55.2488ZM76.1285 46.3315C73.6327 46.3315 70.9462 47.918 70.9462 51.4023C70.9462 54.7309 73.4846 56.4731 75.9924 56.4731C76.4312 56.4731 77.523 56.4469 78.1868 56.2043L78.3253 56.1535V54.8031L78.0259 54.9383C77.5189 55.1669 76.6802 55.2488 76.0644 55.2488C73.9238 55.2488 72.1823 53.5231 72.1823 51.4023C72.1823 49.2095 73.8514 47.5558 76.0644 47.5558C76.6789 47.5558 77.5172 47.6378 78.0259 47.8664L78.3253 48.0008V46.652L78.1872 46.6012C77.5793 46.3783 76.7323 46.3315 76.1285 46.3315ZM115.607 48.8669L113.276 46.4921H112.162V56.3133H113.399V48.372L115.607 50.6222V56.3133H116.843V46.4921H115.607V48.8669ZM171.059 48.8669L168.728 46.4921H167.614V56.3133H168.851V48.372L171.059 50.6222V56.3133H172.295V46.4921H171.059V48.8669ZM183.793 47.5558C184.407 47.5558 185.246 47.6378 185.754 47.8664L186.054 48.0008V46.652L185.916 46.6011C185.308 46.3783 184.461 46.3315 183.857 46.3315C181.361 46.3315 178.675 47.918 178.675 51.4023C178.675 54.7309 181.213 56.4731 183.721 56.4731C184.16 56.4731 185.252 56.4469 185.915 56.2043L186.054 56.1535V54.8031L186.052 54.8038V52.1579H184.816V55.1789C184.466 55.2282 184.101 55.2488 183.793 55.2488C181.652 55.2488 179.911 53.5231 179.911 51.4023C179.911 49.2095 181.58 47.5558 183.793 47.5558ZM148.808 46.4921H147.572V56.3133H151.61V55.089H148.808V46.4921ZM158.765 56.3133H160.001V46.4921H158.765V56.3133ZM135.877 56.3133H139.915V55.089H137.113V50.7468H139.269V49.5225H137.113V47.7164H139.915V46.4922H135.877V56.3133Z" fill="#AC6444"/>
<path d="M44.7274 0.473145C33.7916 0.473145 26.0647 9.15444 26.0647 18.9633C26.0647 28.7722 33.7916 37.4526 44.7274 37.4526C55.6632 37.4526 63.3902 28.7722 63.3902 18.9633C63.3902 9.15445 55.6632 0.473145 44.7274 0.473145ZM44.7274 34.3912C36.1398 34.3912 29.1548 27.4709 29.1548 18.9633C29.1548 10.4557 36.1398 3.53463 44.7274 3.53463C53.315 3.53463 60.3001 10.4557 60.3001 18.9633C60.3001 27.4709 53.3146 34.3912 44.7274 34.3912ZM3.09013 18.9633C3.09013 10.4557 9.57022 3.53463 18.6628 3.53463C21.0457 3.53463 24.3724 3.84848 26.4567 4.78758V1.44912C24.3149 0.664078 21.2198 0.473967 18.9064 0.473967C10.0524 0.473967 0 5.88891 0 18.9633C0 30.8487 9.05285 37.4535 18.3882 37.4535C20.702 37.4535 24.3149 37.2625 26.4567 36.4775V33.139C24.3724 34.0781 21.0457 34.3912 18.6628 34.3912C10.0764 34.3912 3.09013 27.4709 3.09013 18.9633ZM113.456 17.0179C113.074 16.2206 112.626 15.5314 112.116 14.9496C114.476 13.7696 116.108 11.267 116.108 8.37678C116.108 4.3549 112.947 1.082 109.063 1.082H103.594V36.8438H106.684V15.6707C110.667 15.674 111.487 19.5853 112.496 25.9655C113.077 29.6441 113.719 33.7061 115.558 36.8438H119.372C116.941 34.2945 116.233 29.8219 115.549 25.4919C115.05 22.3395 114.58 19.3616 113.456 17.0179ZM109.063 12.6093H106.685V4.14348H109.063C111.243 4.14348 113.018 6.04215 113.018 8.37677C113.018 10.7106 111.243 12.6093 109.063 12.6093ZM86.768 0.473145C79.2374 0.473145 73.1114 6.54284 73.1114 14.0031C73.1114 21.4643 79.2374 27.5331 86.768 27.5331C88.1931 27.5331 90.9685 27.983 90.9685 30.443C90.9685 32.1024 89.4445 33.7823 86.5314 33.7823H69.0688V1.082H65.9787V36.8438H86.5314C91.4205 36.8438 94.0586 33.5463 94.0586 30.4439C94.0586 28.8869 93.4308 27.452 92.2878 26.3777C97.076 24.2734 100.425 19.5189 100.425 14.0032C100.425 6.54285 94.2981 0.473145 86.768 0.473145ZM86.768 24.4717C80.9413 24.4717 76.2015 19.7754 76.2015 14.0031C76.2015 8.23091 80.9413 3.53462 86.768 3.53462C92.5942 3.53462 97.3345 8.23091 97.3345 14.0031C97.3345 19.7754 92.5942 24.4717 86.768 24.4717ZM124.942 7.70155C124.942 3.837 128.349 3.53626 129.393 3.53626C130.535 3.53626 132.047 3.82799 134.15 4.5147V1.33357C132.11 0.764051 130.727 0.474781 129.393 0.474781C125.198 0.474781 121.852 3.31255 121.852 7.70154C121.852 16.3115 132.479 22.6426 132.479 28.7509C132.479 32.3351 129.745 34.3912 127.097 34.3912C124.448 34.3912 122.273 33.3439 121.613 32.8571V36.4382C122.754 36.979 124.635 37.4526 127.345 37.4526C130.215 37.4526 135.569 35.5409 135.569 28.7509C135.569 20.98 124.942 15.3569 124.942 7.70155Z" fill="#AC6444"/>
<path d="M156.238 14.2295V13.0052H152.201V22.8264H153.436V17.2598H155.593V16.0356H153.436V14.2295L156.238 14.2295ZM145.17 12.8446C142.3 12.8446 140.052 15.0719 140.052 17.9154C140.052 20.7589 142.3 22.9862 145.17 22.9862C148.04 22.9862 150.288 20.7589 150.288 17.9154C150.288 15.0719 148.04 12.8446 145.17 12.8446ZM145.17 21.7619C143.029 21.7619 141.287 20.0361 141.287 17.9154C141.287 15.7946 143.029 14.0689 145.17 14.0689C147.311 14.0689 149.052 15.7946 149.052 17.9154C149.052 20.0361 147.311 21.7619 145.17 21.7619Z" fill="#AC6444"/>
<path d="M196.558 29.2687C196.558 31.7574 194.514 33.7823 192.002 33.7823C189.49 33.7823 187.446 31.7574 187.446 29.2687V1.08195H184.356V29.2687C184.356 33.4455 187.786 36.8437 192.002 36.8437C196.218 36.8437 199.648 33.4455 199.648 29.2687V1.08195H196.558L196.558 29.2687ZM169.789 1.08195L166.415 14.5333H163.459V17.5948H165.647L160.819 36.8437H164.003L168.831 17.5948H173.931L178.76 36.8437H181.944L172.973 1.08195H169.789ZM169.599 14.5333L171.381 7.42944L173.163 14.5333H169.599ZM163.459 13.5092V13.5628L163.506 13.5092H163.459ZM217.794 4.14343H224.279V36.8437H227.369V4.14343H235.857V1.08195H217.794V4.14343ZM253.91 1.08194V11.2809L243.898 1.08194H240.807V36.8437H243.898V5.4734L253.91 15.6715V36.8437H257V1.08195L253.91 1.08194ZM232.767 36.8437H235.857V7.92833H232.767V36.8437ZM210.67 3.53621C211.812 3.53621 213.324 3.82794 215.428 4.51465V1.33352C213.388 0.764002 212.004 0.474731 210.67 0.474731C206.476 0.474731 203.129 3.3125 203.129 7.70149C203.129 16.3115 213.756 22.6426 213.756 28.7508C213.756 32.3351 211.023 34.3911 208.374 34.3911C205.726 34.3911 203.551 33.3438 202.891 32.8571V36.4381C204.031 36.979 205.913 37.4526 208.623 37.4526C211.493 37.4526 216.847 35.5408 216.847 28.7508C216.847 20.9799 206.219 15.3568 206.219 7.70149C206.219 3.83695 209.626 3.53621 210.67 3.53621Z" fill="#AC6444"/>
</g>
<defs>
<clipPath id="clip0_942_3100">
<rect width="257" height="56" fill="white" transform="translate(0 0.473145)"/>
</clipPath>
</defs>
</svg>
